<?xml version="1.0" encoding="iso-8859-1"?>
<!-- Generator: Adobe Illustrator 19.0.0, SVG Export Plug-In . SVG Version: 6.00 Build 0)  -->
<svg version="1.1" id="Capa_1" xmlns="http://www.w3.org/2000/svg" xmlns:xlink="http://www.w3.org/1999/xlink" x="0px" y="0px"
	 viewBox="0 0 512 512" style="enable-background:new 0 0 512 512;" xml:space="preserve">
<path style="fill:#39B8EA;" d="M429.948,82.052l36.736-36.736H329.099v137.586l38.306-38.306c61.429,61.429,61.429,161.381,0,222.81
	s-161.381,61.429-222.811,0c-61.429-61.429-61.429-161.381,0-222.81c35.386-35.386,83.554-50.383,129.779-45.001V10.671
	C268.29,10.225,262.162,10,256,10C190.291,9.999,128.515,35.588,82.052,82.052C35.588,128.515,9.999,190.291,10,256
	c-0.001,65.709,25.588,127.485,72.052,173.948S190.291,502.001,256,502c65.709,0.001,127.485-25.588,173.948-72.052
	S502.001,321.709,502,256C502.001,190.291,476.412,128.515,429.948,82.052z"/>
<path d="M256.004,512c-0.005,0,0,0-0.004,0c-68.38,0.001-132.667-26.628-181.02-74.98S-0.001,324.38,0,256
	c-0.001-68.38,26.628-132.667,74.98-181.02C123.33,26.63,187.621,0,255.996,0c0.005,0,0,0,0.004,0
	c6.359,0,12.787,0.235,19.104,0.698c5.226,0.383,9.27,4.734,9.27,9.973v88.923c0,2.854-1.219,5.571-3.351,7.469
	c-2.131,1.897-4.97,2.795-7.806,2.464c-45.208-5.266-89.508,10.095-121.551,42.139c-57.529,57.53-57.529,151.138,0,208.668
	c46.185,46.185,118.406,56.411,175.629,24.868c4.834-2.666,10.919-0.908,13.585,3.931c2.666,4.836,0.906,10.919-3.931,13.585
	c-31.157,17.175-67.863,24.02-103.354,19.267c-36.681-4.91-69.902-21.338-96.072-47.508c-65.327-65.328-65.327-171.625,0-236.953
	c33.749-33.749,79.465-51.202,126.85-48.796V20.146C261.58,20.049,258.783,20,256,20c-63.037-0.001-122.302,24.547-166.877,69.123
	C44.548,133.697,19.999,192.962,20,256c-0.001,63.038,24.548,122.303,69.123,166.877C133.697,467.452,192.962,492.001,256,492
	c63.038,0.001,122.303-24.548,166.877-69.123C467.452,378.303,492.001,319.038,492,256c0.001-63.038-24.548-122.303-69.123-166.877
	c-1.875-1.875-2.929-4.419-2.929-7.071s1.054-5.196,2.929-7.071l19.665-19.666H339.1v103.443l21.234-21.234
	c1.876-1.875,4.419-2.929,7.071-2.929s5.195,1.054,7.071,2.929c26.748,26.749,43.783,62.195,47.966,99.809
	c4.118,37.026-4.271,74.783-23.623,106.314c-2.888,4.706-9.044,6.182-13.753,3.293c-4.707-2.89-6.182-9.047-3.293-13.754
	c34.089-55.545,27.782-125.778-14.603-174.214l-31,31c-2.859,2.86-7.161,3.716-10.898,2.168c-3.736-1.548-6.173-5.194-6.173-9.239
	V45.315c0-5.523,4.478-10,10-10h137.585c4.045,0,7.691,2.437,9.239,6.173c1.547,3.737,0.691,8.038-2.168,10.897l-29.8,29.8
	C487.913,129.629,512.001,190.963,512,256c0.001,68.38-26.628,132.667-74.98,181.02C388.67,485.369,324.379,512,256.004,512z"/>
<path d="M367.405,377.405c-2.56,0-5.118-0.977-7.071-2.929c-3.905-3.905-3.905-10.237,0-14.143l0.188-0.188
	c3.906-3.904,10.236-3.904,14.143,0c3.905,3.905,3.905,10.237,0,14.143l-0.188,0.188
	C372.523,376.429,369.965,377.405,367.405,377.405z"/>
<path d="M50.688,254.58c-5.522,0-10-4.477-10-10c0-38.877,13.129-76.117,37.967-107.692c3.414-4.34,9.701-5.09,14.042-1.677
	c4.341,3.415,5.092,9.702,1.677,14.042c-22.037,28.016-33.686,60.979-33.686,95.327C60.688,250.103,56.21,254.58,50.688,254.58z"/>
<path d="M109.463,128.777c-2.761,0-5.508-1.136-7.483-3.363c-3.666-4.131-3.289-10.451,0.842-14.117l0.545-0.482
	c4.138-3.659,10.457-3.271,14.116,0.864c3.659,4.137,3.272,10.457-0.864,14.116l-0.521,0.462
	C114.192,127.946,111.822,128.777,109.463,128.777z"/>
<g>
</g>
<g>
</g>
<g>
</g>
<g>
</g>
<g>
</g>
<g>
</g>
<g>
</g>
<g>
</g>
<g>
</g>
<g>
</g>
<g>
</g>
<g>
</g>
<g>
</g>
<g>
</g>
<g>
</g>
</svg>
