<svg id="Capa_1" enable-background="new 0 0 512 512" height="512" viewBox="0 0 512 512" width="512" xmlns="http://www.w3.org/2000/svg"><g><g><path d="m484 462.183v-368.183l-19.344-36.014-39.356-39.356c-7.126-7.126-16.792-11.13-26.87-11.13h-349.936c-20.987 0-38 17.013-38 38v421c0 20.987 17.013 38 38 38h386.906l16.127-3.36c16.112-3.357 32.473-17.748 32.473-38.957z" fill="#407093"/><path d="m406.597 450.465h-301.194c-11.598 0-21-9.402-21-21v-159.782c0-11.598 9.402-21 21-21h301.193c11.598 0 21 9.402 21 21v159.782c.001 11.598-9.401 21-20.999 21z" fill="#d8e2f1"/><circle cx="256" cy="349.574" fill="#b3e59f" r="71.003"/><path d="m147.631 188.686h216.737c9.941 0 18-8.059 18-18v-163.186h-252.737v163.186c0 9.941 8.059 18 18 18z" fill="#bed8fb"/><path d="m490.376 83.706-25.72-25.72v52.59 87.141 268.783c0 20.987-17.013 38-38 38h36.85c20.987 0 38-17.013 38-38v-355.924c0-10.078-4.004-19.744-11.13-26.87z" fill="#365e7d"/><path d="m295.667 146.543v-95.626c0-2.761 2.239-5 5-5h44c2.761 0 5 2.239 5 5v95.626c0 2.761-2.239 5-5 5h-44c-2.761 0-5-2.238-5-5z" fill="#80b4fb"/></g><g><path d="m495.68 78.403-65.076-65.076c-8.594-8.594-20.02-13.327-32.174-13.327-14.573 0-333.719 0-349.936 0-25.089 0-45.5 20.411-45.5 45.5v421c0 25.089 20.411 45.5 45.5 45.5h44.636c4.143 0 7.5-3.358 7.5-7.5s-3.357-7.5-7.5-7.5h-44.636c-16.817 0-30.5-13.682-30.5-30.5v-421c0-16.818 13.683-30.5 30.5-30.5h73.637v155.686c0 14.061 11.439 25.5 25.5 25.5h216.738c14.061 0 25.5-11.439 25.5-25.5v-87.977c0-4.142-3.357-7.5-7.5-7.5s-7.5 3.358-7.5 7.5v87.976c0 5.79-4.71 10.5-10.5 10.5h-216.738c-5.79 0-10.5-4.71-10.5-10.5v-155.685h237.738v32.709c0 4.142 3.357 7.5 7.5 7.5s7.5-3.358 7.5-7.5v-32.709h8.561c8.147 0 15.807 3.172 21.566 8.933l65.077 65.077c5.561 5.561 8.933 13.259 8.933 21.566v355.924c0 16.818-13.683 30.5-30.5 30.5h-335.376c-4.143 0-7.5 3.358-7.5 7.5s3.357 7.5 7.5 7.5h335.376c25.089 0 45.5-20.411 45.5-45.5v-355.924c0-12.346-4.998-23.846-13.326-32.173z"/><path d="m435.097 429.464v-159.781c0-15.715-12.785-28.5-28.5-28.5h-301.194c-15.715 0-28.5 12.785-28.5 28.5v159.782c0 15.715 12.785 28.5 28.5 28.5h301.193c15.716-.001 28.501-12.786 28.501-28.501zm-343.194 0v-159.781c0-7.444 6.056-13.5 13.5-13.5h301.193c7.444 0 13.5 6.056 13.5 13.5v159.782c0 7.444-6.056 13.5-13.5 13.5h-301.193c-7.444-.001-13.5-6.057-13.5-13.501z"/><path d="m256 271.07c-43.287 0-78.503 35.216-78.503 78.503s35.216 78.503 78.503 78.503 78.503-35.216 78.503-78.503c0-43.286-35.216-78.503-78.503-78.503zm0 142.007c-35.016 0-63.503-28.487-63.503-63.503s28.487-63.503 63.503-63.503 63.503 28.487 63.503 63.503c0 35.015-28.487 63.503-63.503 63.503z"/><path d="m281.911 320.759-41.316 39.76-8.984-18.156c-1.837-3.713-6.335-5.233-10.048-3.396s-5.233 6.336-3.396 10.048l13.526 27.336c2.238 4.526 8.259 5.605 11.922 2.078l48.696-46.862c2.985-2.873 3.076-7.62.204-10.605-2.871-2.983-7.62-3.074-10.604-.203z"/><path d="m300.667 38.417c-6.893 0-12.5 5.607-12.5 12.5v95.626c0 6.893 5.607 12.5 12.5 12.5h44c6.893 0 12.5-5.607 12.5-12.5v-95.626c0-6.893-5.607-12.5-12.5-12.5zm41.5 105.626h-39v-90.626h39z"/></g></g></svg>