<?xml version="1.0" encoding="iso-8859-1"?>
<!-- Generator: Adobe Illustrator 19.0.0, SVG Export Plug-In . SVG Version: 6.00 Build 0)  -->
<svg version="1.1" id="Capa_1" xmlns="http://www.w3.org/2000/svg" xmlns:xlink="http://www.w3.org/1999/xlink" x="0px" y="0px"
	 viewBox="0 0 490.6 490.6" style="enable-background:new 0 0 490.6 490.6;" xml:space="preserve">
<path style="fill:#009688;" d="M245.3,0C109.8,0,0,109.8,0,245.3s109.8,245.3,245.3,245.3s245.3-109.8,245.3-245.3
	C490.5,109.9,380.7,0.1,245.3,0z"/>
<path style="fill:#FAFAFA;" d="M373.3,192H249.7l19.2-19.2c18.9-18.9,18.9-49.5,0-68.4l0,0c-19.2-18.2-49.3-18.2-68.4,0.1
	L82.2,222.7c-12.5,12.5-12.5,32.8,0,45.2l118.3,118.2c19.5,14.5,44.9,17.4,65-0.1c20.1-17.6,15.6-41.9,6.7-63
	c-1.4-1.7-1.8-3.7-3.4-5.1l-19.2-19.2h123.7c29.5,0,53.3-23.9,53.3-53.3C426.6,215.8,402.8,192,373.3,192z"/>
<path d="M245.3,490.6C109.8,490.6,0,380.8,0,245.3S109.8,0,245.3,0s245.3,109.8,245.3,245.3C490.5,380.7,380.7,490.5,245.3,490.6z
	 M245.3,21.3c-123.7,0-224,100.3-224,224s100.3,224,224,224s224-100.3,224-224C469.2,121.6,369,21.4,245.3,21.3z"/>
<path d="M234.6,400.4c-12.8,0-25.1-5.1-34.1-14.3L82.2,267.9c-12.5-12.5-12.5-32.8,0-45.2l118.3-118.2c19.1-18.3,49.3-18.3,68.4,0
	c18.9,18.9,18.9,49.5,0,68.4l0,0l-19.2,19.2h123.6c29.5,0,53.3,23.9,53.3,53.3c0,29.5-23.9,53.3-53.3,53.3H249.7l19.2,19.2
	c18.9,18.9,18.9,49.5,0,68.4c-9,9-21.3,14.1-34.1,14.2L234.6,400.4z M234.6,111.6c-7.2,0-14.1,2.8-19.2,7.9L97.3,237.7
	c-4.2,4.2-4.2,10.9,0,15.1l118.2,118.3c10.7,10.2,27.5,10.2,38.3,0c10.6-10.5,10.6-27.7,0-38.2l0,0l-37.3-37.3
	c-4.2-4.1-4.3-10.9-0.1-15.1c2-2.1,4.8-3.2,7.8-3.2h149.1c17.7,0,32-14.3,32-32s-14.3-32-32-32H224c-5.9,0-10.7-4.8-10.7-10.6
	c0-2.8,1.1-5.6,3.1-7.6l37.4-37.2c10.6-10.6,10.5-27.7,0-38.3C248.7,114.5,241.8,111.7,234.6,111.6L234.6,111.6z"/>
<g>
</g>
<g>
</g>
<g>
</g>
<g>
</g>
<g>
</g>
<g>
</g>
<g>
</g>
<g>
</g>
<g>
</g>
<g>
</g>
<g>
</g>
<g>
</g>
<g>
</g>
<g>
</g>
<g>
</g>
</svg>
