<svg width="97" height="37" viewBox="0 0 97 37" fill="none" xmlns="http://www.w3.org/2000/svg">
<path d="M14.9508 22.6195C17.2317 22.6195 21.1644 22.7506 21.1644 25.2216C21.1644 28.8922 18.1231 29.8426 15.7766 29.8426H13.4957C9.31392 29.8426 8.17344 27.8828 7.41312 24.8415C7.41312 24.4613 4.87653 24.3958 4.56192 24.3958C1.39611 24.3958 0.504696 26.8668 0.504696 28.8332C0.504696 35.1058 6.14811 36.4954 13.2401 36.4954H15.0819C23.3208 36.4954 30.4783 34.2799 30.4783 28.0728V26.1065C30.4783 24.0156 29.6525 19.0735 26.172 19.0735C29.0822 19.0735 30.4783 16.1568 30.4783 12.0996V11.3393C30.4783 1.77626 20.9743 0 15.521 0H14.1315C6.96742 0 0 1.71072 0 6.39717C0 9.43845 1.58619 12.9254 4.752 12.9254C5.06662 12.9254 7.47867 12.5453 7.47867 12.2307C8.29798 9.18938 10.71 7.85882 13.7513 7.85882H14.8918C19.5192 7.85882 21.1644 9.37946 21.1644 11.975V12.3552C21.1644 15.3965 18.4378 15.3965 16.0323 15.3965H15.0819C14.3215 15.3965 13.5612 15.3309 12.9254 15.0819C11.0246 15.8422 9.9497 17.1072 9.9497 19.008C9.9497 21.5446 11.6604 22.5605 13.9414 22.5605C13.8758 22.5605 14.5706 22.6195 14.9508 22.6195Z" fill="#EAAB4C"/>
<path d="M47.8949 36.4954C60.5057 36.4954 61.3971 30.4783 61.3971 23.2553C61.3971 13.9414 57.0843 12.2897 49.1009 12.2897C43.6541 12.2897 41.9434 14.0004 41.9434 14.0659V10.6445C41.9434 6.6528 45.0437 6.6528 47.3902 6.6528H47.9604C52.1422 6.6528 53.5383 7.03296 53.6628 9.62853C53.6628 10.0087 56.1994 11.1492 56.514 11.1492C59.6864 11.1492 61.0169 8.5536 61.0169 6.58725C61.0169 2.09088 55.0589 0 47.9604 0H47.3246C39.0922 0 32.6885 2.21542 32.6885 11.4703V22.9997C32.6885 35.2303 39.4724 36.4954 47.8949 36.4954ZM47.7048 19.5192C52.3323 19.5192 52.6534 20.0895 52.6534 24.1402C52.6534 29.2133 50.1758 29.8426 47.3902 29.8426C42.4481 29.8426 41.8779 25.7263 41.8779 24.1402C41.8779 21.479 43.9032 19.5192 47.7048 19.5192Z" fill="#EAAB4C"/>
<path d="M78.1805 0C63.9245 0 63.6099 13.1811 63.6099 16.668V17.3628C63.6099 34.5356 70.3282 36.4954 80.0813 36.4954C96.4347 36.4954 96.8739 29.2723 96.8739 20.1485V17.8675C96.8739 3.04128 91.4271 0 78.1805 0ZM79.7667 7.85882C86.2949 7.85882 87.5599 10.5199 87.5599 19.1391C87.5599 28.2629 83.2536 28.8332 79.321 28.8332C75.0802 28.8332 72.9238 26.3621 72.9238 19.1391C72.9238 10.2643 74.4444 7.85882 79.7667 7.85882Z" fill="#EAAB4C"/>
</svg>
