<svg width="169" height="37" viewBox="0 0 169 37" fill="none" xmlns="http://www.w3.org/2000/svg">
<path d="M15.2719 0.504883C0.314614 0.504883 0 15.0755 0 17.6121V17.8677C0 35.0405 7.41312 37.0002 17.1727 37.0002C34.47 37.0002 34.6601 28.8923 34.6601 19.0082V18.3724C34.6601 3.54616 28.512 0.504883 15.2719 0.504883ZM16.8516 8.36371C23.3798 8.36371 25.3462 11.0248 25.3462 19.644C25.3462 30.3474 20.3386 30.3474 16.4124 30.3474C12.1651 30.3474 9.31392 28.8268 9.31392 19.644C9.31392 10.7692 11.5293 8.36371 16.8516 8.36371Z" fill="white"/>
<path d="M39.0271 11.5951L45.4898 32.4383C46.8859 36.9413 52.2081 37.0002 54.6136 37.0002C57.9761 37.0002 63.6129 36.8757 64.7534 32.5039C65.5793 29.3381 70.836 10.2645 71.4718 7.79347C71.6618 6.9676 71.9109 6.08275 72.042 4.75219C72.042 2.15006 69.571 0.504883 67.1589 0.504883C65.009 0.504883 62.8526 1.64536 61.1419 2.97592C61.6466 3.73624 62.0923 4.56211 62.0923 5.51251C62.0267 6.84307 61.8367 7.918 61.5221 8.99294L56.1998 29.5281C56.0097 30.1574 55.2494 30.3474 54.358 30.3474C53.3486 27.2472 47.5151 7.53784 46.6303 5.13235C46.3746 4.30648 46.1256 3.42163 45.7454 2.66131L45.4898 2.28115C44.7295 1.14067 43.3989 0.504883 41.9438 0.504883C38.9615 0.504883 37.0607 2.85139 35.291 5.63704C36.6806 6.0172 38.5814 10.0744 39.0271 11.5951Z" fill="white"/>
<path d="M73.8093 13.5547V34.3389C73.8093 36.1807 75.52 36.6854 77.8009 36.6854H97.8249C100.106 36.6854 101.692 35.6105 101.692 33.0739C101.692 31.1731 100.552 30.5373 98.6508 29.777C97.8904 29.9671 96.75 29.9671 95.4194 29.9671H82.743V21.479H93.3875C95.6685 21.479 97.2546 19.9584 97.2546 17.4218C97.2546 15.521 95.9896 14.6951 94.0888 13.9348C93.453 14.256 92.3126 14.315 90.982 14.315H82.743V7.85227H97.8249C100.106 7.85227 101.692 6.33163 101.692 3.8016C101.692 1.9008 100.361 0.76032 98.4607 0C97.8249 0.570239 96.75 0.694775 95.4194 0.694775H78.7513C76.2148 0.694775 74.5696 1.38955 72.9834 3.42144C73.8093 4.11622 73.8093 7.91781 73.8093 13.5547Z" fill="white"/>
<path d="M134.32 14.7609V11.8441C134.32 2.28115 125.445 0.504883 119.998 0.504883H117.271C112.585 0.504883 105.742 2.02552 103.396 4.94227C103.776 5.51251 103.776 8.10808 103.776 11.464V32.6284C103.776 35.2895 104.346 36.5611 107.833 36.6856H108.082C110.619 36.6856 112.585 35.8008 114.165 33.7689C113.345 33.0741 113.345 31.8091 113.345 26.1657V24.2059C113.85 24.1403 116.826 24.1403 117.966 24.1403C118.917 25.5365 119.742 27.1161 120.313 28.0075L122.659 31.8091C124.18 34.3391 125.956 36.7512 128.362 36.7512C131.783 36.7512 134.444 34.6603 134.444 30.9832C132.288 30.6031 131.023 27.6863 129.882 25.9166C129.568 25.5365 129.122 24.645 128.486 23.6357C132.858 22.174 134.32 18.0578 134.32 14.7609ZM125.006 12.4799V13.0502C125.006 16.2815 122.784 16.3471 120.247 16.3471C119.428 16.3471 114.676 16.3471 113.155 16.157V9.43864C114.735 8.48824 118.097 8.36371 119.362 8.36371C123.99 8.36371 124.94 9.88435 125.006 12.4799Z" fill="white"/>
<path d="M145.59 19.3228C145.59 14.2562 145.59 8.36371 154.845 8.36371C157.886 8.36371 160.291 9.69427 161.117 12.7355C161.117 13.0502 163.523 13.4303 163.844 13.4303C167.01 13.4303 168.596 9.94334 168.596 6.90206C168.596 2.2156 161.622 0.504883 154.464 0.504883C142.358 0.504883 136.341 5.13235 136.341 18.7526C136.341 32.3793 142.994 37.0002 155.1 37.0002C162.192 37.0002 167.836 35.6107 167.836 29.3381C167.836 27.3717 166.944 24.9007 163.778 24.9007C163.464 24.9007 160.927 24.9662 160.927 25.3464C160.167 28.3877 159.026 30.3474 154.845 30.3474C150.217 30.3474 145.721 26.3558 145.59 19.3228Z" fill="white"/>
</svg>
