<svg id="Capa_1" enable-background="new 0 0 512 512" height="512" viewBox="0 0 512 512" width="512" xmlns="http://www.w3.org/2000/svg"><g><g><path d="m405.667 123.466c8.837 0 16 7.163 16 16v55.267h-331.335v-55.267c0-8.837 7.163-16 16-16z" fill="#868eaf"/><path d="m405.667 123.466h-23c8.837 0 16 7.163 16 16v55.267h23v-55.267c0-8.837-7.163-16-16-16z" fill="#7d83ad"/><path d="m40.633 405.101c-18.299 0-33.133-14.834-33.133-33.133v-149.102c0-18.299 14.834-33.133 33.133-33.133h430.735c18.299 0 33.133 14.834 33.133 33.133v149.103c0 18.299-14.834 33.133-33.133 33.133h-430.735z" fill="#a0c8ff"/><path d="m471.367 189.733h-22.999c18.299 0 33.133 14.834 33.133 33.133v149.103c0 18.298-14.834 33.132-33.133 33.132h22.999c18.299 0 33.133-14.834 33.133-33.132v-149.103c0-18.299-14.834-33.133-33.133-33.133z" fill="#91b2fa"/><path d="m7.5 305.7v66.268c0 18.298 14.834 33.132 33.133 33.132h430.735c18.299 0 33.133-14.834 33.133-33.132v-66.268z" fill="#868eaf"/><path d="m481.501 371.969c0 18.298-14.834 33.132-33.133 33.132h22.999c18.299 0 33.133-14.834 33.133-33.132v-66.269h-22.999z" fill="#7d83ad"/><path d="m380.534 222.866h-249.068c-4.418 0-8-3.582-8-8v-149.667c0-4.418 3.582-8 8-8h249.068c4.418 0 8 3.582 8 8v149.668c0 4.418-3.582 7.999-8 7.999z" fill="#f9f5f3"/><path d="m380.534 454.801h-249.068c-4.418 0-8-3.582-8-8v-83.401c0-4.418 3.582-8 8-8h249.068c4.418 0 8 3.582 8 8v83.401c0 4.419-3.582 8-8 8z" fill="#f9f5f3"/><path d="m322.55 421.668h-133.1c-4.418 0-8-3.582-8-8v-17.134c0-4.418 3.582-8 8-8h133.1c4.418 0 8 3.582 8 8v17.134c0 4.418-3.581 8-8 8z" fill="#868eaf"/><path d="m322.55 388.534h-23c4.418 0 8 3.582 8 8v17.134c0 4.418-3.582 8-8 8h23c4.418 0 8-3.582 8-8v-17.134c0-4.418-3.581-8-8-8z" fill="#7d83ad"/><g fill="#f9eae0"><path d="m380.534 355.401h-23c4.418 0 8 3.582 8 8v83.401c0 4.418-3.582 8-8 8h23c4.418 0 8-3.582 8-8v-83.401c0-4.419-3.582-8-8-8z"/><path d="m380.534 57.199h-23c4.418 0 8 3.582 8 8v149.667c0 4.419-3.582 8-8 8h23c4.418 0 8-3.581 8-8v-149.667c0-4.419-3.582-8-8-8z"/></g></g><g><path d="m471.367 182.233h-42.2v-42.768c0-12.958-10.542-23.5-23.5-23.5h-9.633v-50.766c0-8.547-6.953-15.5-15.5-15.5h-63.043c-4.142 0-7.5 3.357-7.5 7.5s3.358 7.5 7.5 7.5h63.043c.276 0 .5.225.5.5v58.267 66.267 25.634h-250.068v-25.634-66.267-58.267c0-.275.224-.5.5-.5h156.025c4.142 0 7.5-3.357 7.5-7.5s-3.358-7.5-7.5-7.5h-156.025c-8.547 0-15.5 6.953-15.5 15.5v50.767h-9.633c-12.958 0-23.5 10.542-23.5 23.5v42.768h-42.2c-22.405-.001-40.633 18.227-40.633 40.632v149.103c0 22.405 18.228 40.633 40.633 40.633h75.333v34.199c0 8.547 6.953 15.5 15.5 15.5h249.068c8.547 0 15.5-6.953 15.5-15.5v-34.199h75.333c22.405 0 40.633-18.228 40.633-40.633v-149.103c0-22.405-18.228-40.633-40.633-40.633zm-65.7-51.267c4.687 0 8.5 3.813 8.5 8.5v42.767h-18.133v-51.267zm-307.835 8.5c0-4.687 3.813-8.5 8.5-8.5h9.633v51.267h-18.133zm-57.199 57.767h42.2v42.199c0 13.27 10.796 24.067 24.067 24.067h58.007c4.142 0 7.5-3.357 7.5-7.5s-3.358-7.5-7.5-7.5h-58.007c-4.999 0-9.067-4.067-9.067-9.067v-42.199h18.133v25.633c0 4.143 3.358 7.5 7.5 7.5h265.068c4.142 0 7.5-3.357 7.5-7.5v-25.633h18.133v42.199c0 5-4.067 9.067-9.067 9.067h-210.194c-4.142 0-7.5 3.357-7.5 7.5s3.358 7.5 7.5 7.5h210.195c13.271 0 24.067-10.797 24.067-24.067v-42.199h42.2c14.134 0 25.633 11.499 25.633 25.633v75.334h-75.333-331.336-75.332v-75.334c0-14.134 11.499-25.633 25.633-25.633zm-25.633 174.736v-58.769h67.832v84.401h-42.2c-14.133.001-25.632-11.498-25.632-25.632zm366.034 74.832c0 .275-.224.5-.5.5h-249.068c-.276 0-.5-.225-.5-.5v-83.9h250.068zm7.5-98.901h-265.068c-4.142 0-7.5 3.357-7.5 7.5v42.201h-18.134v-84.401h316.335v84.401h-18.133v-42.201c0-4.142-3.358-7.5-7.5-7.5zm82.833 49.702h-42.2v-84.402h67.833v58.769c0 14.134-11.499 25.633-25.633 25.633z"/><path d="m40.632 347.9c-4.142 0-7.5 3.357-7.5 7.5v16.567c0 4.143 3.358 7.5 7.5 7.5s7.5-3.357 7.5-7.5v-16.567c0-4.142-3.358-7.5-7.5-7.5z"/><path d="m471.368 347.9c-4.142 0-7.5 3.357-7.5 7.5v16.567c0 4.143 3.358 7.5 7.5 7.5s7.5-3.357 7.5-7.5v-16.567c0-4.142-3.358-7.5-7.5-7.5z"/><path d="m322.55 381.034h-133.1c-8.547 0-15.5 6.953-15.5 15.5v17.134c0 8.547 6.953 15.5 15.5 15.5h133.1c8.547 0 15.5-6.953 15.5-15.5v-17.134c0-8.547-6.953-15.5-15.5-15.5zm.5 32.634c0 .275-.224.5-.5.5h-133.1c-.276 0-.5-.225-.5-.5v-17.134c0-.275.224-.5.5-.5h133.1c.276 0 .5.225.5.5z"/></g></g></svg>