<svg id="Filled" height="512" viewBox="0 0 512 512" width="512" xmlns="http://www.w3.org/2000/svg"><path d="m392 488h-272a48 48 0 0 1 -48-48v-368a48 48 0 0 1 48-48h224l96 96v320a48 48 0 0 1 -48 48z" fill="#8690fa"/><path d="m72 360h368a0 0 0 0 1 0 0v80a48 48 0 0 1 -48 48h-272a48 48 0 0 1 -48-48v-80a0 0 0 0 1 0 0z" fill="#cfd2fc"/><path d="m440 120h-48a48 48 0 0 1 -48-48v-48z" fill="#cfd2fc"/><path d="m128 152h256v144h-256z" fill="#fff"/><path d="m128 104h64v192h-64z" fill="#5153ff"/><path d="m349.657 18.343a8 8 0 0 0 -5.657-2.343h-224a56.063 56.063 0 0 0 -56 56v368a56.063 56.063 0 0 0 56 56h272a56.063 56.063 0 0 0 56-56v-320a8 8 0 0 0 -2.343-5.657zm2.343 24.97 68.687 68.687h-28.687a40.045 40.045 0 0 1 -40-40zm-232-11.313h216v40a56.063 56.063 0 0 0 56 56h40v224h-352v-280a40.045 40.045 0 0 1 40-40zm272 448h-272a40.045 40.045 0 0 1 -40-40v-72h352v72a40.045 40.045 0 0 1 -40 40z"/><path d="m240 448h-24v-56a8 8 0 0 0 -16 0v64a8 8 0 0 0 8 8h32a8 8 0 0 0 0-16z"/><path d="m179.578 384.845a8 8 0 0 0 -10.733 3.577l-8.845 17.689-8.845-17.689a8 8 0 0 0 -14.31 7.156l14.211 28.422-14.211 28.422a8 8 0 1 0 14.31 7.156l8.845-17.689 8.845 17.689a8 8 0 1 0 14.31-7.156l-14.211-28.422 14.211-28.422a8 8 0 0 0 -3.577-10.733z"/><path d="m371.578 384.845a8 8 0 0 0 -10.733 3.577l-8.845 17.689-8.845-17.689a8 8 0 0 0 -14.31 7.156l14.211 28.422-14.211 28.422a8 8 0 1 0 14.31 7.156l8.845-17.689 8.845 17.689a8 8 0 1 0 14.31-7.156l-14.211-28.422 14.211-28.422a8 8 0 0 0 -3.577-10.733z"/><path d="m288 400h16a8 8 0 0 0 0-16h-16a24 24 0 0 0 0 48 8 8 0 0 1 0 16h-16a8 8 0 0 0 0 16h16a24 24 0 0 0 0-48 8 8 0 0 1 0-16z"/><path d="m128 304h256a8 8 0 0 0 8-8v-144a8 8 0 0 0 -8-8h-184v-40a8 8 0 0 0 -8-8h-64a8 8 0 0 0 -8 8v192a8 8 0 0 0 8 8zm184-64h-48v-32h48zm16-32h48v32h-48zm-192 0h48v32h-48zm64 0h48v32h-48zm48 48v32h-48v-32zm16 0h48v32h-48zm0-64v-32h48v32zm-16 0h-48v-32h48zm-64 0h-48v-32h48zm-48 64h48v32h-48zm192 32v-32h48v32zm48-96h-48v-32h48zm-240-80h48v32h-48z"/></svg>